<svg version="1.1" id="Layer_1" xmlns="http://www.w3.org/2000/svg" xmlns:xlink="http://www.w3.org/1999/xlink" x="0px" y="0px"
	 width="100%" viewBox="0 0 240 240" enable-background="new 0 0 240 240" xml:space="preserve">
<path fill="#00081D" opacity="1.000000" stroke="none" d="M241.000000,82.000000 C241.000000,135.333328 241.000000,188.166672 241.000000,241.000000 C161.000000,241.000000 81.000000,241.000000 1.000000,241.000000 C1.000000,161.000000 1.000000,81.000000 1.000000,1.000000 C81.000000,1.000000 161.000000,1.000000 241.000000,1.000000 C241.000000,27.833334 241.000000,54.666668 241.000000,82.000000 M3.740577,41.500240 C3.740741,98.649536 3.734407,155.798828 3.745148,212.948120 C3.748251,229.458221 12.502318,238.223679 29.003839,238.226944 C90.318695,238.239105 151.633560,238.237152 212.948410,238.229019 C229.474350,238.226822 238.250015,229.487030 238.253510,212.996796 C238.266449,151.681931 238.264999,90.367081 238.254837,29.052219 C238.252090,12.541694 229.497833,3.777760 212.995758,3.773087 C164.676987,3.759403 116.358215,3.767112 68.039444,3.768099 C54.043671,3.768385 40.045925,3.629446 26.052711,3.820384 C13.354300,3.993654 4.114430,13.325362 3.774600,26.005478 C3.645195,30.833994 3.745006,35.668655 3.740577,41.500240 z"/>
<path fill="#0247FA" opacity="1.000000" stroke="none" d="M3.740464,41.000378 C3.745006,35.668655 3.645195,30.833994 3.774600,26.005478 C4.114430,13.325362 13.354300,3.993654 26.052711,3.820384 C40.045925,3.629446 54.043671,3.768385 68.039444,3.768099 C116.358215,3.767112 164.676987,3.759403 212.995758,3.773087 C229.497833,3.777760 238.252090,12.541694 238.254837,29.052219 C238.264999,90.367081 238.266449,151.681931 238.253510,212.996796 C238.250015,229.487030 229.474350,238.226822 212.948410,238.229019 C151.633560,238.237152 90.318695,238.239105 29.003839,238.226944 C12.502318,238.223679 3.748251,229.458221 3.745148,212.948120 C3.734407,155.798828 3.740741,98.649536 3.740464,41.000378 M114.416656,223.415649 C119.646591,224.254471 124.856873,225.653229 130.109772,225.837631 C156.322586,226.757767 179.407837,218.333420 198.081177,200.035568 C221.510315,177.077560 230.618195,148.449478 227.790955,116.008995 C227.342331,110.861549 225.245926,105.857719 223.795059,100.034126 C222.824829,96.604324 221.719391,93.206276 220.905457,89.739777 C213.387466,57.721561 195.227951,34.476742 164.295914,22.324961 C132.997772,10.029361 102.247086,11.251883 73.235199,29.056179 C47.378349,44.924259 32.817249,68.915176 26.379311,98.172966 C26.224936,98.874535 26.541142,99.679649 26.725264,101.120422 C38.411110,97.710915 49.693588,94.419098 61.030109,92.173698 C61.044662,92.522636 61.059212,92.871574 60.529911,93.696899 C53.071899,96.007355 45.564827,98.177383 38.198849,100.751236 C36.789913,101.243561 35.010403,103.304245 34.976490,104.680176 C34.739571,114.292145 34.033924,124.017387 35.142101,133.512177 C37.582142,154.418350 46.452442,172.538895 61.552547,188.106079 C62.118378,186.270050 62.592522,184.947189 62.933773,183.590881 C66.314507,170.154037 69.673233,156.711655 74.156700,143.011108 C74.188828,144.582825 74.550117,146.231949 74.201576,147.714142 C71.115166,160.839523 67.777969,173.907562 64.853378,187.067749 C64.377655,189.208420 64.986366,192.058380 66.117126,193.977615 C67.799072,196.832428 70.745117,197.267746 74.026009,196.117691 C87.422348,191.421799 100.882263,186.907425 114.283913,182.226410 C119.495987,180.405899 120.658012,178.008194 119.302010,172.837051 C118.881645,171.234009 118.519714,169.615631 118.996788,167.991684 C119.859734,167.928955 120.722687,167.866226 121.915268,168.422668 C122.339561,171.623749 122.763847,174.824844 122.712547,178.032394 C122.438301,178.141983 122.164055,178.251572 121.889816,178.361160 C122.231949,178.575134 122.574081,178.789093 122.877769,179.713959 C119.223038,185.147278 113.082344,186.121811 107.563400,188.088440 C96.986366,191.857483 86.329544,195.402588 75.101616,199.089172 C74.254578,199.503113 73.407532,199.917053 72.570595,200.326065 C76.440483,204.118713 80.101868,207.707031 83.029846,211.289444 C62.547222,202.015991 48.126411,186.799667 38.901802,166.431396 C31.628733,150.372177 28.809624,133.402237 28.268080,115.933640 C28.224297,114.521317 27.833416,113.119751 27.603828,111.713188 C27.002876,111.710152 26.401922,111.707115 25.800970,111.704079 C22.929880,127.102440 19.226414,142.343567 16.583275,157.784988 C17.394197,157.956146 18.205120,158.127304 19.016043,158.298462 C21.101423,148.370193 23.186804,138.441925 25.451460,127.660149 C26.427721,132.611954 27.235569,136.652634 28.020010,140.697830 C32.381416,163.188705 41.614098,183.141876 58.818974,198.770844 C73.586945,212.186096 91.209061,219.435608 111.368622,222.421417 C112.178360,222.583786 112.988091,222.746155 114.416656,223.415649 z"/>
<path fill="#FBF204" opacity="1.000000" stroke="none" d="M75.705833,199.040604 C86.329544,195.402588 96.986366,191.857483 107.563400,188.088440 C113.082344,186.121811 119.223038,185.147278 123.069458,179.143311 C123.236809,178.390427 123.212471,178.208176 123.188141,178.025925 C122.763847,174.824844 122.339561,171.623749 121.714127,167.711761 C118.120972,155.382843 114.699654,143.773285 111.344093,132.144745 C106.749786,116.223404 102.205421,100.287651 97.849274,84.143448 C98.196808,83.783958 98.334732,83.639107 98.709869,83.738556 C101.803032,88.226463 104.577225,92.528633 107.555481,96.684570 C108.732094,98.326454 110.363045,99.642754 111.796242,101.133904 C111.805359,101.160507 111.854973,101.187004 111.522392,101.440048 C114.722237,106.494896 118.254654,111.296700 121.793747,116.124329 C121.800423,116.150154 121.844246,116.180557 121.539734,116.467148 C122.082664,117.535912 122.930115,118.318085 123.785645,119.126907 C123.793739,119.153542 123.841164,119.182716 123.537163,119.467522 C124.083488,120.532074 124.933815,121.311813 125.793762,122.126022 C125.803391,122.160500 125.870148,122.186325 125.562920,122.454010 C128.101593,126.511414 130.947510,130.301132 133.801758,134.124283 C133.810104,134.157715 133.873459,134.184830 133.569519,134.453003 C134.797806,137.059540 136.238724,139.464355 137.882339,141.721588 C140.787888,145.711884 143.816818,149.612335 146.799484,153.592010 C146.804855,153.633652 146.882919,153.664581 146.656769,153.998947 C147.884750,156.065598 149.338867,157.797882 150.798309,159.576996 C150.803619,159.623825 150.892899,159.654022 150.776276,160.041748 C151.365891,160.989243 152.072098,161.548996 152.788681,162.137833 C152.799042,162.166901 152.855164,162.192566 152.537598,162.471680 C155.593597,167.758621 159.304916,169.366180 163.921753,167.819382 C168.482635,166.291367 170.738541,162.410934 170.118683,156.667160 C169.351135,149.554932 168.421936,142.459793 167.525681,135.361923 C166.131393,124.319855 164.791382,113.269844 163.260254,102.246552 C162.404266,96.083847 160.998230,89.994560 160.228027,83.823776 C159.498596,77.979782 159.275848,72.072563 158.830276,66.193146 C159.317154,66.008224 159.804031,65.823296 160.290909,65.638374 C161.015686,66.514580 161.939789,67.291039 162.435593,68.281830 C170.988907,85.375000 179.480377,102.499107 188.005569,119.606377 C192.008255,127.638451 195.859756,135.757980 200.244736,143.577118 C201.112732,145.124878 204.104965,145.481369 206.117599,146.387207 C206.842194,144.442627 207.690567,142.531937 208.236359,140.538406 C208.488922,139.616013 208.151474,138.532074 208.569031,137.244995 C209.626816,138.366486 211.005325,140.037903 210.639465,141.118927 C207.722046,149.738983 205.552185,158.854706 201.140305,166.684219 C182.220200,200.260742 152.898315,215.427719 114.616821,212.728226 C100.582222,211.738556 87.362518,207.336334 75.705833,199.040604 z"/>
<path fill="#DDE5FC" opacity="1.000000" stroke="none" d="M146.882919,153.664581 C146.882919,153.664581 146.804855,153.633652 147.294647,153.474014 C143.714096,146.779037 139.652985,140.237823 135.513748,133.746414 C135.421951,133.602448 134.440109,134.026001 133.873459,134.184830 C133.873459,134.184830 133.810104,134.157715 134.287506,134.046509 C132.239441,129.744232 129.713974,125.553162 127.188515,121.362091 C126.749054,121.636833 126.309601,121.911575 125.870148,122.186325 C125.870148,122.186325 125.803391,122.160500 126.343178,121.940994 C125.869034,120.875237 124.855095,120.028976 123.841164,119.182716 C123.841164,119.182716 123.793739,119.153542 124.329926,118.935349 C123.858826,117.871620 122.851532,117.026093 121.844246,116.180557 C121.844246,116.180557 121.800423,116.150154 122.276772,116.045059 C119.554985,110.748550 116.356850,105.557144 113.158707,100.365738 C112.724121,100.639481 112.289543,100.913239 111.854965,101.186996 C111.854973,101.187004 111.805359,101.160507 112.278610,101.049713 C108.854889,94.676010 105.127937,88.295654 100.940605,82.233307 C99.902367,80.730164 97.372299,80.257431 95.527985,79.311058 C95.012482,81.335396 93.723785,83.529114 94.123329,85.352989 C95.434334,91.337486 97.325584,97.197319 99.052902,103.087738 C105.399399,124.730362 111.769699,146.365997 118.131042,168.004272 C118.519714,169.615631 118.881645,171.234009 119.302010,172.837051 C120.658012,178.008194 119.495987,180.405899 114.283913,182.226410 C100.882263,186.907425 87.422348,191.421799 74.026009,196.117691 C70.745117,197.267746 67.799072,196.832428 66.117126,193.977615 C64.986366,192.058380 64.377655,189.208420 64.853378,187.067749 C67.777969,173.907562 71.115166,160.839523 74.201576,147.714142 C74.550117,146.231949 74.188828,144.582825 73.606995,143.183319 C73.057289,143.355515 73.034706,143.440186 72.995560,143.477020 C72.956421,143.513840 73.052979,143.532166 73.455582,143.906921 C75.008598,140.709869 76.159004,137.138077 77.517334,133.294983 C77.795784,132.354935 77.866318,131.686203 78.050507,130.771759 C78.189964,130.169357 78.215775,129.812637 78.465485,129.116455 C79.457130,123.755119 80.224869,118.733238 80.970825,113.329247 C82.351379,106.897156 83.753723,100.847160 85.506981,94.754822 C86.347542,93.555977 87.291183,92.375191 87.230904,91.248100 C87.110893,89.004532 86.438820,86.790497 85.994827,84.564255 C83.439117,85.339890 80.883408,86.115532 77.891579,87.004395 C77.155937,87.140282 76.856407,87.162956 76.175934,87.164589 C70.855347,88.471458 65.915710,89.799370 60.976067,91.127281 C49.693588,94.419098 38.411110,97.710915 26.725264,101.120422 C26.541142,99.679649 26.224936,98.874535 26.379311,98.172966 C32.817249,68.915176 47.378349,44.924259 73.235199,29.056179 C102.247086,11.251883 132.997772,10.029361 164.295914,22.324961 C195.227951,34.476742 213.387466,57.721561 220.905457,89.739777 C221.719391,93.206276 222.824829,96.604324 223.498871,100.647087 C223.446350,109.857452 224.126373,118.468941 223.849579,127.049553 C223.103378,150.182343 216.194397,171.228912 200.467270,188.612122 C177.917511,213.536423 149.339142,223.919022 115.671158,222.209427 C113.792007,222.057327 112.328712,222.039154 110.865417,222.020981 C91.209061,219.435608 73.586945,212.186096 58.818974,198.770844 C41.614098,183.141876 32.381416,163.188705 28.020010,140.697830 C27.235569,136.652634 26.427721,132.611954 25.451460,127.660149 C23.186804,138.441925 21.101423,148.370193 19.016043,158.298462 C18.205120,158.127304 17.394197,157.956146 16.583275,157.784988 C19.226414,142.343567 22.929880,127.102440 25.800970,111.704079 C26.401922,111.707115 27.002876,111.710152 27.603828,111.713188 C27.833416,113.119751 28.224297,114.521317 28.268080,115.933640 C28.809624,133.402237 31.628733,150.372177 38.901802,166.431396 C48.126411,186.799667 62.547222,202.015991 83.416290,211.271179 C83.802742,211.252899 83.818550,211.196411 83.967072,211.506470 C84.746468,212.052765 85.377342,212.288986 86.310577,212.674698 C102.459511,219.692108 119.051041,221.302231 135.968292,219.052475 C170.471954,214.463959 196.643265,197.443787 212.219131,165.838303 C221.957901,146.077087 222.734192,124.799133 220.433456,103.372856 C219.119507,91.136330 216.732208,79.051338 210.179260,67.909081 C209.779327,67.022675 209.403824,66.484383 209.014313,65.972374 C209.000320,65.998665 209.059891,65.999481 209.073792,65.720879 C208.833786,65.202309 208.579865,64.962334 208.292938,64.829498 C208.259903,64.936630 208.376846,64.745331 208.374634,64.434433 C207.981262,63.694336 207.590118,63.265141 207.172928,62.813877 C207.146896,62.791813 207.214676,62.806591 207.206421,62.453510 C195.844696,42.446011 179.002625,29.774265 157.595245,22.711071 C132.289627,14.361684 107.348755,14.890450 83.295738,26.558807 C55.179592,40.198231 38.461861,63.345333 30.339453,93.106209 C30.012045,94.305855 30.013683,95.595299 29.805054,97.311470 C32.048050,96.739380 33.793724,96.354546 35.503540,95.848564 C50.325634,91.462288 65.167000,87.137794 79.940674,82.593544 C83.608467,81.465363 86.760872,81.465660 89.750473,84.480370 C90.125130,85.115219 90.398125,85.432938 90.671120,85.750656 C90.678566,85.164742 90.686020,84.578819 90.703949,83.591888 C90.585457,79.447227 92.557648,76.635262 96.006569,76.590324 C98.310341,76.560318 101.334862,78.325577 102.832550,80.233017 C106.924370,85.444305 110.378143,91.156563 114.084846,96.670250 C128.263901,117.761536 142.411880,138.873962 156.701889,159.889801 C157.533493,161.112823 159.516281,161.553085 161.330109,162.310394 C162.105942,161.513657 162.514999,160.764114 162.974609,159.679153 C162.981827,158.895325 162.938477,158.446930 162.950653,157.556305 C162.998093,154.745667 162.990036,152.377289 163.185638,149.839722 C162.983093,149.112518 162.576874,148.554504 162.112335,147.581284 C162.170212,145.779984 162.286392,144.393860 162.699936,143.007660 C163.591995,143.007370 164.186722,143.007187 164.886673,143.404755 C165.541260,148.396896 166.559494,153.002731 166.447510,157.580933 C166.389160,159.966827 164.894623,163.411591 163.029861,164.347183 C161.217682,165.256363 158.098618,163.590652 155.563263,163.012589 C154.645935,162.803421 153.757034,162.469543 152.855164,162.192566 C152.855164,162.192566 152.799042,162.166901 153.296844,161.841583 C152.827408,160.895508 151.860153,160.274765 150.892899,159.654022 C150.892899,159.654022 150.803619,159.623825 151.315857,159.430359 C150.831924,156.800629 150.955750,153.370438 146.882919,153.664581 M100.738449,184.207367 
	C104.988220,182.765717 109.236763,181.320419 113.488159,179.883560 
	C116.798767,178.764633 117.734962,176.634201 116.710480,173.272064 
	C114.723335,166.750626 112.963799,160.160217 111.061523,153.612457 
	C104.614685,131.422012 98.146683,109.237701 91.413940,86.114021 
	C90.787849,88.259933 90.365051,89.471558 90.082352,90.715027 
	C87.500870,102.069633 84.964874,113.434608 82.374908,124.787262 
	C77.638908,145.546692 72.822807,166.288193 68.212059,187.075287 
	C67.796379,188.949341 68.014793,191.596359 69.102135,192.949600 
	C69.829514,193.854843 72.758514,193.554306 74.458969,193.019562 
	C83.020683,190.326996 91.502411,187.380066 100.738449,184.207367 
z"/>
<path fill="#FBF304" opacity="1.000000" stroke="none" 
	d="
M73.034706,143.440186 
	C73.034706,143.440186 73.057289,143.355515 73.047745,143.313171 
	C69.673233,156.711655 66.314507,170.154037 62.933773,183.590881 
	C62.592522,184.947189 62.118378,186.270050 61.552547,188.106079 
	C46.452442,172.538895 37.582142,154.418350 35.142101,133.512177 
	C34.033924,124.017387 34.739571,114.292145 34.976490,104.680176 
	C35.010403,103.304245 36.789913,101.243561 38.198849,100.751236 
	C45.564827,98.177383 53.071899,96.007355 61.197571,93.440918 
	C65.458649,92.085197 69.098633,91.112785 72.622910,89.823975 
	C74.063232,89.297264 75.253082,88.085655 76.556885,87.185631 
	C76.856407,87.162956 77.155937,87.140282 78.291107,87.048721 
	C84.171097,86.308037 86.163704,88.335876 84.848816,93.379555 
	C84.739983,93.797020 85.043907,94.322098 85.156059,94.797173 
	C83.753723,100.847160 82.351379,106.897156 80.603485,113.478172 
	C79.189598,118.127678 78.121254,122.246162 77.041092,126.337753 
	C77.029274,126.310875 77.020386,126.252815 76.895569,126.641098 
	C76.243584,129.353424 75.716408,131.677444 75.056854,134.232788 
	C74.953888,134.639297 74.983322,134.814529 74.848694,135.262405 
	C74.526405,136.357422 74.368172,137.179764 74.074570,138.232880 
	C73.970795,138.639206 74.002373,138.814743 73.871017,139.263245 
	C73.552628,140.358337 73.397156,141.180466 73.083878,142.346710 
	C72.962280,142.940628 72.998489,143.190414 73.034706,143.440186 
z"/>
<path fill="#0B0BAC" opacity="1.000000" stroke="none" 
	d="
M210.203690,68.257187 
	C216.732208,79.051338 219.119507,91.136330 220.433456,103.372856 
	C222.734192,124.799133 221.957901,146.077087 212.219131,165.838303 
	C196.643265,197.443787 170.471954,214.463959 135.968292,219.052475 
	C119.051041,221.302231 102.459511,219.692108 86.201050,212.322021 
	C85.132286,211.612030 84.475418,211.404221 83.818550,211.196411 
	C83.818550,211.196411 83.802742,211.252899 83.782997,211.274124 
	C80.101868,207.707031 76.440483,204.118713 72.570595,200.326065 
	C73.407532,199.917053 74.254578,199.503113 75.403725,199.064880 
	C87.362518,207.336334 100.582222,211.738556 114.616821,212.728226 
	C152.898315,215.427719 182.220200,200.260742 201.140305,166.684219 
	C205.552185,158.854706 207.722046,149.738983 210.639465,141.118927 
	C211.005325,140.037903 209.626816,138.366486 208.554199,137.261108 
	C208.051880,137.553604 208.039307,137.473389 208.317566,137.964081 
	C213.038757,138.671234 211.518295,135.247284 212.072845,132.643845 
	C212.242584,131.527527 212.265121,130.767548 212.473465,129.633011 
	C212.536667,121.836021 212.414062,114.413589 212.369293,106.613831 
	C212.273193,105.490997 212.099274,104.745491 211.982880,103.617249 
	C211.549652,100.761398 211.058914,98.288284 210.583023,95.487030 
	C210.402130,94.772598 210.206375,94.386314 210.007004,93.697830 
	C209.648895,92.930428 209.294388,92.465225 209.122009,91.685982 
	C209.195328,90.914650 209.086548,90.457359 208.998657,89.624512 
	C206.253738,82.517761 204.006927,75.510864 200.609543,69.115143 
	C194.334412,57.301933 185.221512,47.741253 175.141220,39.293236 
	C176.146378,39.240139 176.976822,39.101665 177.419189,39.452496 
	C185.975601,46.238232 194.476624,53.093716 203.017349,59.899345 
	C204.345398,60.957600 205.812088,61.841866 207.214676,62.806591 
	C207.214676,62.806591 207.146896,62.791813 207.098755,63.145500 
	C207.492676,63.914566 207.934753,64.329948 208.376846,64.745331 
	C208.376846,64.745331 208.259903,64.936630 208.260742,65.108841 
	C208.527679,65.520531 208.793777,65.760010 209.059891,65.999481 
	C209.059891,65.999481 209.000320,65.998665 208.997314,66.314316 
	C209.397415,67.172379 209.800552,67.714783 210.203690,68.257187 
z"/>
<path fill="#0709B1" opacity="1.000000" stroke="none" 
	d="
M116.087021,222.343369 
	C149.339142,223.919022 177.917511,213.536423 200.467270,188.612122 
	C216.194397,171.228912 223.103378,150.182343 223.849579,127.049553 
	C224.126373,118.468941 223.446350,109.857452 223.557007,101.023773 
	C225.245926,105.857719 227.342331,110.861549 227.790955,116.008995 
	C230.618195,148.449478 221.510315,177.077560 198.081177,200.035568 
	C179.407837,218.333420 156.322586,226.757767 130.109772,225.837631 
	C124.856873,225.653229 119.646591,224.254471 114.416687,223.158417 
	C114.973488,222.715240 115.530258,222.529312 116.087021,222.343369 
z"/>
<path fill="#1650F1" opacity="1.000000" stroke="none" 
	d="
M118.563919,167.997986 
	C111.769699,146.365997 105.399399,124.730362 99.052902,103.087738 
	C97.325584,97.197319 95.434334,91.337486 94.123329,85.352989 
	C93.723785,83.529114 95.012482,81.335396 95.527985,79.311058 
	C97.372299,80.257431 99.902367,80.730164 100.940605,82.233307 
	C105.127937,88.295654 108.854889,94.676010 112.269493,101.023109 
	C110.363045,99.642754 108.732094,98.326454 107.555481,96.684570 
	C104.577225,92.528633 101.803032,88.226463 98.514488,83.474380 
	C97.934471,83.429955 97.787064,83.894012 97.639664,84.358078 
	C102.205421,100.287651 106.749786,116.223404 111.344093,132.144745 
	C114.699654,143.773285 118.120972,155.382843 121.549309,167.402191 
	C120.722687,167.866226 119.859734,167.928955 118.563919,167.997986 
z"/>
<path fill="#2761E8" opacity="1.000000" stroke="none" 
	d="
M76.175934,87.164589 
	C75.253082,88.085655 74.063232,89.297264 72.622910,89.823975 
	C69.098633,91.112785 65.458649,92.085197 61.469498,93.202728 
	C61.059212,92.871574 61.044662,92.522636 61.003090,91.650490 
	C65.915710,89.799370 70.855347,88.471458 76.175934,87.164589 
z"/>
<path fill="#5557CB" opacity="1.000000" stroke="none" 
	d="
M115.671158,222.209427 
	C115.530258,222.529312 114.973488,222.715240 114.107269,222.904846 
	C112.988091,222.746155 112.178360,222.583786 111.117020,222.221191 
	C112.328712,222.039154 113.792007,222.057327 115.671158,222.209427 
z"/>
<path fill="#1651F0" opacity="1.000000" stroke="none" 
	d="
M122.950348,178.029160 
	C123.212471,178.208176 123.236809,178.390427 123.088684,178.787872 
	C122.574081,178.789093 122.231949,178.575134 121.889816,178.361145 
	C122.164055,178.251572 122.438301,178.141983 122.950348,178.029160 
z"/>
<path fill="#1650F1" opacity="1.000000" stroke="none" 
	d="
M208.039307,137.473389 
	C208.039307,137.473389 208.051880,137.553604 208.066711,137.537491 
	C208.151474,138.532074 208.488922,139.616013 208.236359,140.538406 
	C207.690567,142.531937 206.842194,144.442627 206.117599,146.387207 
	C204.104965,145.481369 201.112732,145.124878 200.244736,143.577118 
	C195.859756,135.757980 192.008255,127.638451 188.005569,119.606377 
	C179.480377,102.499107 170.988907,85.375000 162.435593,68.281830 
	C161.939789,67.291039 161.015686,66.514580 160.290909,65.638374 
	C159.804031,65.823296 159.317154,66.008224 158.830276,66.193146 
	C159.275848,72.072563 159.498596,77.979782 160.228027,83.823776 
	C160.998230,89.994560 162.404266,96.083847 163.260254,102.246552 
	C164.791382,113.269844 166.131393,124.319855 167.525681,135.361923 
	C168.421936,142.459793 169.351135,149.554932 170.118683,156.667160 
	C170.738541,162.410934 168.482635,166.291367 163.921753,167.819382 
	C159.304916,169.366180 155.593597,167.758621 152.537598,162.471680 
	C153.757034,162.469543 154.645935,162.803421 155.563263,163.012589 
	C158.098618,163.590652 161.217682,165.256363 163.029861,164.347183 
	C164.894623,163.411591 166.389160,159.966827 166.447510,157.580933 
	C166.559494,153.002731 165.541260,148.396896 164.914612,142.975708 
	C164.232559,137.372467 163.597549,132.599640 163.028824,127.818924 
	C161.462997,114.656181 159.885559,101.494606 158.390640,88.323730 
	C157.494461,80.428001 156.592560,72.525871 156.061447,64.601944 
	C155.959656,63.083126 157.575089,61.449211 158.398285,59.868393 
	C160.098053,60.834080 161.900513,61.662868 163.451828,62.826481 
	C164.166489,63.362530 164.391998,64.552711 164.835220,65.448303 
	C177.018219,90.066116 189.194534,114.687241 201.398529,139.294632 
	C202.131195,140.771942 203.084259,142.139938 203.934769,143.558807 
	C204.408371,143.331146 204.881973,143.103485 205.355576,142.875824 
	C204.917923,141.611481 204.609268,140.283752 204.023651,139.092133 
	C191.395325,113.395805 178.723679,87.720757 166.097351,62.023457 
	C164.394638,58.558125 162.069489,55.979591 157.930420,57.239704 
	C153.665878,58.538021 153.034988,61.886890 153.481155,66.046173 
	C155.790909,87.578850 157.832520,109.140213 160.109940,130.676514 
	C160.548248,134.821381 161.621964,138.899078 162.402588,143.007751 
	C162.286392,144.393860 162.170212,145.779984 162.064667,147.887085 
	C162.377518,149.075012 162.679749,149.541946 162.981979,150.008896 
	C162.990036,152.377289 162.998093,154.745667 162.653061,157.553741 
	C161.903183,157.996368 161.506393,157.999313 161.036438,157.577454 
	C159.538528,144.656097 158.186722,132.150742 156.671768,119.665169 
	C154.437500,101.251503 152.017868,82.860153 149.827560,64.441422 
	C149.157150,58.803837 151.484680,55.137699 155.914841,53.833141 
	C161.307678,52.245098 165.214752,53.850880 167.904724,59.039627 
	C170.584457,64.208580 173.050751,69.487877 175.633484,74.707481 
	C185.102615,93.844208 194.550476,112.991646 204.102890,132.086746 
	C205.083984,134.047913 206.711670,135.685593 208.039307,137.473389 
z"/>
<path fill="#1650F1" opacity="1.000000" stroke="none" 
	d="
M133.569519,134.453003 
	C134.440109,134.026001 135.421951,133.602448 135.513748,133.746414 
	C139.652985,140.237823 143.714096,146.779037 147.289276,153.432373 
	C143.816818,149.612335 140.787888,145.711884 137.882339,141.721588 
	C136.238724,139.464355 134.797806,137.059540 133.569519,134.453003 
z"/>
<path fill="#1650F1" opacity="1.000000" stroke="none" 
	d="
M111.522385,101.440041 
	C112.289543,100.913239 112.724121,100.639481 113.158707,100.365738 
	C116.356850,105.557144 119.554985,110.748550 122.270096,116.019234 
	C118.254654,111.296700 114.722237,106.494896 111.522385,101.440041 
z"/>
<path fill="#1650F1" opacity="1.000000" stroke="none" 
	d="
M125.562920,122.454010 
	C126.309601,121.911575 126.749054,121.636833 127.188515,121.362091 
	C129.713974,125.553162 132.239441,129.744232 134.279160,134.013077 
	C130.947510,130.301132 128.101593,126.511414 125.562920,122.454010 
z"/>
<path fill="#1650F1" opacity="1.000000" stroke="none" 
	d="
M146.656769,153.998947 
	C150.955750,153.370438 150.831924,156.800629 151.310532,159.383530 
	C149.338867,157.797882 147.884750,156.065598 146.656769,153.998947 
z"/>
<path fill="#1650F1" opacity="1.000000" stroke="none" 
	d="
M121.539734,116.467148 
	C122.851532,117.026093 123.858826,117.871620 124.321838,118.908707 
	C122.930115,118.318085 122.082664,117.535912 121.539734,116.467148 
z"/>
<path fill="#1650F1" opacity="1.000000" stroke="none" 
	d="
M123.537163,119.467522 
	C124.855095,120.028976 125.869034,120.875237 126.333557,121.906525 
	C124.933815,121.311813 124.083488,120.532074 123.537163,119.467522 
z"/>
<path fill="#1650F1" opacity="1.000000" stroke="none" 
	d="
M150.776276,160.041748 
	C151.860153,160.274765 152.827408,160.895508 153.286499,161.812500 
	C152.072098,161.548996 151.365891,160.989243 150.776276,160.041748 
z"/>
<path fill="#104FF4" opacity="1.000000" stroke="none" 
	d="
M161.109604,158.002274 
	C161.506393,157.999313 161.903183,157.996368 162.597565,157.995972 
	C162.938477,158.446930 162.981827,158.895325 162.703125,159.836945 
	C161.908508,161.005966 161.435928,161.681778 160.963348,162.357605 
	C159.516281,161.553085 157.533493,161.112823 156.701889,159.889801 
	C142.411880,138.873962 128.263901,117.761536 114.084846,96.670250 
	C110.378143,91.156563 106.924370,85.444305 102.832550,80.233017 
	C101.334862,78.325577 98.310341,76.560318 96.006569,76.590324 
	C92.557648,76.635262 90.585457,79.447227 90.440582,83.620956 
	C89.994102,84.088448 89.821465,84.125847 89.648827,84.163239 
	C86.760872,81.465660 83.608467,81.465363 79.940674,82.593544 
	C65.167000,87.137794 50.325634,91.462288 35.503540,95.848564 
	C33.793724,96.354546 32.048050,96.739380 29.805054,97.311470 
	C30.013683,95.595299 30.012045,94.305855 30.339453,93.106209 
	C38.461861,63.345333 55.179592,40.198231 83.295738,26.558807 
	C107.348755,14.890450 132.289627,14.361684 157.595245,22.711071 
	C179.002625,29.774265 195.844696,42.446011 207.206421,62.453510 
	C205.812088,61.841866 204.345398,60.957600 203.017349,59.899345 
	C194.476624,53.093716 185.975601,46.238232 177.419189,39.452496 
	C176.976822,39.101665 176.146378,39.240139 175.164673,39.256142 
	C174.832748,39.361469 174.919098,39.339359 174.739716,39.004276 
	C173.858124,38.443398 173.155914,38.217602 172.135483,37.929276 
	C116.726959,3.229333 49.646885,35.943047 38.217834,91.288208 
	C50.557682,87.433411 62.686161,83.475693 74.929848,79.913971 
	C79.065445,78.710922 83.492920,78.511215 89.086159,77.653816 
	C95.193825,70.558220 100.978905,71.018921 107.232841,80.346413 
	C124.285622,105.779922 141.373413,131.189987 158.512177,156.565552 
	C159.005539,157.296021 160.227417,157.534439 161.109604,158.002274 
z"/>
<path fill="#1D56EE" opacity="1.000000" stroke="none" 
	d="
M100.375336,184.364899 
	C91.502411,187.380066 83.020683,190.326996 74.458969,193.019562 
	C72.758514,193.554306 69.829514,193.854843 69.102135,192.949600 
	C68.014793,191.596359 67.796379,188.949341 68.212059,187.075287 
	C72.822807,166.288193 77.638908,145.546692 82.374908,124.787262 
	C84.964874,113.434608 87.500870,102.069633 90.082352,90.715027 
	C90.365051,89.471558 90.787849,88.259933 91.413940,86.114021 
	C98.146683,109.237701 104.614685,131.422012 111.061523,153.612457 
	C112.963799,160.160217 114.723335,166.750626 116.710480,173.272064 
	C117.734962,176.634201 116.798767,178.764633 113.488159,179.883560 
	C109.236763,181.320419 104.988220,182.765717 100.375336,184.364899 
M77.365410,161.949936 
	C75.104561,171.398788 72.843704,180.847626 70.362923,191.215622 
	C85.083122,186.270599 98.769806,181.744370 112.360405,176.945969 
	C113.265526,176.626389 114.163559,174.046310 113.841080,172.846603 
	C111.384094,163.706024 108.628647,154.645493 105.954399,145.563507 
	C101.598564,130.770721 97.233810,115.980576 92.872818,101.189323 
	C92.597946,101.193138 92.323074,101.196960 92.048203,101.200783 
	C87.241440,121.189056 82.434669,141.177322 77.365410,161.949936 
z"/>
<path fill="#D9E4FE" opacity="1.000000" stroke="none" 
	d="
M162.699921,143.007660 
	C161.621964,138.899078 160.548248,134.821381 160.109940,130.676514 
	C157.832520,109.140213 155.790909,87.578850 153.481155,66.046173 
	C153.034988,61.886890 153.665878,58.538021 157.930420,57.239704 
	C162.069489,55.979591 164.394638,58.558125 166.097351,62.023457 
	C178.723679,87.720757 191.395325,113.395805 204.023651,139.092133 
	C204.609268,140.283752 204.917923,141.611481 205.355576,142.875824 
	C204.881973,143.103485 204.408371,143.331146 203.934769,143.558807 
	C203.084259,142.139938 202.131195,140.771942 201.398529,139.294632 
	C189.194534,114.687241 177.018219,90.066116 164.835220,65.448303 
	C164.391998,64.552711 164.166489,63.362530 163.451828,62.826481 
	C161.900513,61.662868 160.098053,60.834080 158.398285,59.868393 
	C157.575089,61.449211 155.959656,63.083126 156.061447,64.601944 
	C156.592560,72.525871 157.494461,80.428001 158.390640,88.323730 
	C159.885559,101.494606 161.462997,114.656181 163.028824,127.818924 
	C163.597549,132.599640 164.232559,137.372467 164.809372,142.577942 
	C164.186722,143.007187 163.591995,143.007370 162.699921,143.007660 
z"/>
<path fill="#3366EE" opacity="1.000000" stroke="none" 
	d="
M85.506981,94.754822 
	C85.043907,94.322098 84.739983,93.797020 84.848816,93.379555 
	C86.163704,88.335876 84.171097,86.308037 78.727226,86.935501 
	C80.883408,86.115532 83.439117,85.339890 85.994827,84.564255 
	C86.438820,86.790497 87.110893,89.004532 87.230904,91.248100 
	C87.291183,92.375191 86.347542,93.555977 85.506981,94.754822 
z"/>
<path fill="#0247FA" opacity="1.000000" stroke="none" 
	d="
M74.209938,138.002121 
	C74.368172,137.179764 74.526405,136.357422 75.005127,135.192780 
	C75.385796,134.754562 75.516129,134.634430 75.492958,134.567230 
	C75.424118,134.367493 75.294876,134.188553 75.189240,134.001480 
	C75.716408,131.677444 76.243584,129.353424 76.913300,126.702271 
	C77.055840,126.375153 77.067245,126.492119 77.325989,126.958153 
	C77.803680,128.101425 78.022629,128.778671 78.241577,129.455917 
	C78.215775,129.812637 78.189964,130.169357 77.817009,131.028763 
	C77.416374,132.209732 77.362885,132.888000 77.309402,133.566284 
	C76.159004,137.138077 75.008598,140.709869 73.667130,143.699921 
	C73.397942,142.746307 73.319817,142.374451 73.241684,142.002594 
	C73.397156,141.180466 73.552628,140.358337 74.027817,139.193741 
	C74.408104,138.755310 74.539223,138.634766 74.515968,138.567978 
	C74.446358,138.368073 74.316360,138.189209 74.209938,138.002121 
z"/>
<path fill="#2258EB" opacity="1.000000" stroke="none" 
	d="
M78.465485,129.116455 
	C78.022629,128.778671 77.803680,128.101425 77.288658,126.967484 
	C76.992577,126.510773 77.052917,126.364639 77.052917,126.364639 
	C78.121254,122.246162 79.189598,118.127678 80.625275,113.860275 
	C80.224869,118.733238 79.457130,123.755119 78.465485,129.116455 
z"/>
<path fill="#D9E4FE" opacity="1.000000" stroke="none" 
	d="
M163.185638,149.839722 
	C162.679749,149.541946 162.377518,149.075012 162.122986,148.302277 
	C162.576874,148.554504 162.983093,149.112518 163.185638,149.839722 
z"/>
<path fill="#1650F1" opacity="1.000000" stroke="none" 
	d="
M161.330109,162.310394 
	C161.435928,161.681778 161.908508,161.005966 162.652557,160.172363 
	C162.514999,160.764114 162.105942,161.513657 161.330109,162.310394 
z"/>
<path fill="#104FF4" opacity="1.000000" stroke="none" 
	d="
M210.179260,67.909081 
	C209.800552,67.714783 209.397415,67.172379 209.011307,66.288025 
	C209.403824,66.484383 209.779327,67.022675 210.179260,67.909081 
z"/>
<path fill="#2258EB" opacity="1.000000" stroke="none" 
	d="
M77.517334,133.294983 
	C77.362885,132.888000 77.416374,132.209732 77.703354,131.274445 
	C77.866318,131.686203 77.795784,132.354935 77.517334,133.294983 
z"/>
<path fill="#1D56EE" opacity="1.000000" stroke="none" 
	d="
M89.750473,84.480370 
	C89.821465,84.125847 89.994102,84.088448 90.430099,84.021980 
	C90.686020,84.578819 90.678566,85.164742 90.671120,85.750656 
	C90.398125,85.432938 90.125130,85.115219 89.750473,84.480370 
z"/>
<path fill="#104FF4" opacity="1.000000" stroke="none" 
	d="
M208.374634,64.434433 
	C207.934753,64.329948 207.492676,63.914566 207.124786,63.167564 
	C207.590118,63.265141 207.981262,63.694336 208.374634,64.434433 
z"/>
<path fill="#0247FA" opacity="1.000000" stroke="none" 
	d="
M83.967072,211.506470 
	C84.475418,211.404221 85.132286,211.612030 85.898682,212.172516 
	C85.377342,212.288986 84.746468,212.052765 83.967072,211.506470 
z"/>
<path fill="#2258EB" opacity="1.000000" stroke="none" 
	d="
M73.083878,142.346710 
	C73.319817,142.374451 73.397942,142.746307 73.264526,143.325165 
	C73.052979,143.532166 72.956421,143.513840 72.995560,143.477020 
	C72.998489,143.190414 72.962280,142.940628 73.083878,142.346710 
z"/>
<path fill="#104FF4" opacity="1.000000" stroke="none" 
	d="
M209.073792,65.720879 
	C208.793777,65.760010 208.527679,65.520531 208.293762,65.001709 
	C208.579865,64.962334 208.833786,65.202309 209.073792,65.720879 
z"/>
<path fill="#2258EB" opacity="1.000000" stroke="none" 
	d="
M75.056847,134.232788 
	C75.294876,134.188553 75.424118,134.367493 75.492958,134.567230 
	C75.516129,134.634430 75.385796,134.754562 75.169182,134.920135 
	C74.983322,134.814529 74.953888,134.639297 75.056847,134.232788 
z"/>
<path fill="#2258EB" opacity="1.000000" stroke="none" 
	d="
M74.074570,138.232880 
	C74.316360,138.189209 74.446358,138.368073 74.515968,138.567978 
	C74.539223,138.634766 74.408104,138.755310 74.190750,138.920776 
	C74.002373,138.814743 73.970795,138.639206 74.074570,138.232880 
z"/>
<path fill="#DDE5FC" opacity="1.000000" stroke="none" 
	d="
M77.041092,126.337753 
	C77.052917,126.364639 76.992577,126.510773 77.029907,126.501450 
	C77.067245,126.492119 77.055840,126.375153 77.038116,126.313980 
	C77.020386,126.252815 77.029274,126.310875 77.041092,126.337753 
z"/>
<path fill="#FCF303" opacity="1.000000" stroke="none" 
	d="
M161.036438,157.577454 
	C160.227417,157.534439 159.005539,157.296021 158.512177,156.565552 
	C141.373413,131.189987 124.285622,105.779922 107.232841,80.346413 
	C100.978905,71.018921 95.193825,70.558220 89.086159,77.653816 
	C83.492920,78.511215 79.065445,78.710922 74.929848,79.913971 
	C62.686161,83.475693 50.557682,87.433411 38.217834,91.288208 
	C49.646885,35.943047 116.726959,3.229333 172.338257,38.241329 
	C173.545868,38.857063 174.232483,39.098213 174.919098,39.339359 
	C174.919098,39.339359 174.832748,39.361469 174.809296,39.398560 
	C185.221512,47.741253 194.334412,57.301933 200.609543,69.115143 
	C204.006927,75.510864 206.253738,82.517761 208.719208,89.672607 
	C208.118591,90.406715 207.818359,90.717163 207.518112,91.027618 
	C207.992050,91.351746 208.465973,91.675880 208.939896,92.000015 
	C209.294388,92.465225 209.648895,92.930428 209.706345,93.760315 
	C209.149109,94.442947 208.888916,94.760880 208.628723,95.078812 
	C209.275208,95.324265 209.921692,95.569717 210.568176,95.815170 
	C211.058914,98.288284 211.549652,100.761398 211.657837,103.692513 
	C211.614014,105.097389 211.952728,106.044273 212.291443,106.991165 
	C212.414062,114.413589 212.536667,121.836021 212.134033,129.675903 
	C209.331436,131.322052 209.768066,132.254913 211.925629,133.000183 
	C211.518295,135.247284 213.038757,138.671234 208.317566,137.964081 
	C206.711670,135.685593 205.083984,134.047913 204.102890,132.086746 
	C194.550476,112.991646 185.102615,93.844208 175.633484,74.707481 
	C173.050751,69.487877 170.584457,64.208580 167.904724,59.039627 
	C165.214752,53.850880 161.307678,52.245098 155.914841,53.833141 
	C151.484680,55.137699 149.157150,58.803837 149.827560,64.441422 
	C152.017868,82.860153 154.437500,101.251503 156.671768,119.665169 
	C158.186722,132.150742 159.538528,144.656097 161.036438,157.577454 
z"/>
<path fill="#FBF204" opacity="1.000000" stroke="none" 
	d="
M212.369278,106.613838 
	C211.952728,106.044273 211.614014,105.097389 211.600327,104.075241 
	C212.099274,104.745491 212.273193,105.490997 212.369278,106.613838 
z"/>
<path fill="#FBF204" opacity="1.000000" stroke="none" 
	d="
M212.072845,132.643845 
	C209.768066,132.254913 209.331436,131.322052 211.948212,130.050476 
	C212.265121,130.767548 212.242584,131.527527 212.072845,132.643845 
z"/>
<path fill="#FBF204" opacity="1.000000" stroke="none" 
	d="
M210.583023,95.487030 
	C209.921692,95.569717 209.275208,95.324265 208.628723,95.078812 
	C208.888916,94.760880 209.149109,94.442947 209.709961,94.062523 
	C210.206375,94.386314 210.402130,94.772598 210.583023,95.487030 
z"/>
<path fill="#FBF204" opacity="1.000000" stroke="none" 
	d="
M209.122009,91.685974 
	C208.465973,91.675880 207.992050,91.351746 207.518112,91.027618 
	C207.818359,90.717163 208.118591,90.406715 208.698303,90.048164 
	C209.086548,90.457359 209.195328,90.914650 209.122009,91.685974 
z"/>
<path fill="#FBF204" opacity="1.000000" stroke="none" 
	d="
M97.849274,84.143448 
	C97.787064,83.894012 97.934471,83.429955 98.277267,83.230072 
	C98.334732,83.639107 98.196808,83.783958 97.849274,84.143448 
z"/>
<path fill="#0B0BAC" opacity="1.000000" stroke="none" 
	d="
M174.739716,39.004276 
	C174.232483,39.098213 173.545868,38.857063 172.656479,38.303864 
	C173.155914,38.217602 173.858124,38.443398 174.739716,39.004276 
z"/>
<path fill="#FAF205" opacity="1.000000" stroke="none" 
	d="
M77.496658,161.557770 
	C82.434669,141.177322 87.241440,121.189056 92.048203,101.200783 
	C92.323074,101.196960 92.597946,101.193138 92.872818,101.189323 
	C97.233810,115.980576 101.598564,130.770721 105.954399,145.563507 
	C108.628647,154.645493 111.384094,163.706024 113.841080,172.846603 
	C114.163559,174.046310 113.265526,176.626389 112.360405,176.945969 
	C98.769806,181.744370 85.083122,186.270599 70.362923,191.215622 
	C72.843704,180.847626 75.104561,171.398788 77.496658,161.557770 
z"/>
</svg>